<svg xmlns="http://www.w3.org/2000/svg" xmlns:xlink="http://www.w3.org/1999/xlink" viewBox="0 0 24 30" version="1.1" x="0px" y="0px"><g stroke="none" stroke-width="1" fill="none" fill-rule="evenodd"><path d="M9,20 L18.5,20 C19.3278576,20 20,19.3278576 20,18.5 L20,4.5 C20,3.67214237 19.3278576,3 18.5,3 L9,3 L9,20 Z M8,20 L8,3 L4.5,3 C3.67214237,3 3,3.67214237 3,4.5 L3,18.5 C3,19.3278576 3.67214237,20 4.5,20 L8,20 Z M18.5,21 L4.5,21 C3.11985763,21 2,19.8801424 2,18.5 L2,4.5 C2,3.11985763 3.11985763,2 4.5,2 L18.5,2 C19.8801424,2 21,3.11985763 21,4.5 L21,18.5 C21,19.8801424 19.8801424,21 18.5,21 Z M4.5,6 C4.22385763,6 4,5.77614237 4,5.5 C4,5.22385763 4.22385763,5 4.5,5 L6.5,5 C6.77614237,5 7,5.22385763 7,5.5 C7,5.77614237 6.77614237,6 6.5,6 L4.5,6 Z M4.5,8 C4.22385763,8 4,7.77614237 4,7.5 C4,7.22385763 4.22385763,7 4.5,7 L6.5,7 C6.77614237,7 7,7.22385763 7,7.5 C7,7.77614237 6.77614237,8 6.5,8 L4.5,8 Z M4.5,10 C4.22385763,10 4,9.77614237 4,9.5 C4,9.22385763 4.22385763,9 4.5,9 L6.5,9 C6.77614237,9 7,9.22385763 7,9.5 C7,9.77614237 6.77614237,10 6.5,10 L4.5,10 Z" fill="#ffffff" fill-rule="one"/></g></svg>