<svg width="24" height="24" viewBox="0 0 24 24" fill="none" xmlns="http://www.w3.org/2000/svg">
<path fill-rule="evenodd" clip-rule="evenodd" d="M9.19706 13.5H16.6471C17.3971 13.5 18.0571 13.09 18.3971 12.47L21.7771 6.34C22.0471 5.86 21.8671 5.25 21.3871 4.98C20.9071 4.72 20.2971 4.89 20.0371 5.37L19.1356 7H7.50001L8.18448 8.45215L5.63706 3.07C5.47706 2.72 5.11706 2.5 4.73706 2.5H3.09706C2.54706 2.5 2.09706 2.95 2.09706 3.5C2.09706 4.05 2.54706 4.5 3.09706 4.5H4.09706L7.69706 12.09L6.34706 14.53C5.61706 15.87 6.57706 17.5 8.09706 17.5H19.0971C19.6471 17.5 20.0971 17.05 20.0971 16.5C20.0971 15.95 19.6471 15.5 19.0971 15.5H8.09706L9.19706 13.5ZM8.20713 8.5H8.20704L8.18448 8.45215L8.20713 8.5ZM8.20713 8.5H18.3047L18.7765 7.64934L16.6471 11.5H9.62706L8.20713 8.5ZM18.7765 7.64934L19.1356 7H19.1367L18.7765 7.64934ZM6.10706 20.5C6.10706 19.4 6.99706 18.5 8.09706 18.5C9.19706 18.5 10.0971 19.4 10.0971 20.5C10.0971 21.6 9.19706 22.5 8.09706 22.5C6.99706 22.5 6.10706 21.6 6.10706 20.5ZM16.1071 20.5C16.1071 19.4 16.9971 18.5 18.0971 18.5C19.1971 18.5 20.0971 19.4 20.0971 20.5C20.0971 21.6 19.1971 22.5 18.0971 22.5C16.9971 22.5 16.1071 21.6 16.1071 20.5Z" fill="#ffffff"/>
</svg>
