<svg width="24" height="24" viewBox="0 0 24 24" fill="none" xmlns="http://www.w3.org/2000/svg">
<path fill-rule="evenodd" clip-rule="evenodd" d="M4 7.75C3.45 7.75 3 7.13125 3 6.375C3 5.61875 3.45 5 4 5H20C20.55 5 21 5.61875 21 6.375C21 7.13125 20.55 7.75 20 7.75H4ZM4 13.75H20C20.55 13.75 21 13.1875 21 12.5C21 11.8125 20.55 11.25 20 11.25H4C3.45 11.25 3 11.8125 3 12.5C3 13.1875 3.45 13.75 4 13.75ZM4 20H20C20.55 20 21 19.3813 21 18.625C21 17.8687 20.55 17.25 20 17.25H4C3.45 17.25 3 17.8687 3 18.625C3 19.3813 3.45 20 4 20Z" fill="black"/>
</svg>
